<?xml version="1.0" encoding="UTF-8" standalone="no"?>
<!-- Created with Inkscape (http://www.inkscape.org/) -->

<svg
   xmlns:dc="http://purl.org/dc/elements/1.1/"
   xmlns:cc="http://creativecommons.org/ns#"
   xmlns:rdf="http://www.w3.org/1999/02/22-rdf-syntax-ns#"
   xmlns:svg="http://www.w3.org/2000/svg"
   xmlns="http://www.w3.org/2000/svg"
   xmlns:inkscape="http://www.inkscape.org/namespaces/inkscape"
   version="1.1"
   width="192"
   height="192"
   viewBox="0 0 192 192"
   id="Layer_1"
   xml:space="preserve"
   style="overflow:visible"><defs
   id="defs16" /><metadata
   id="metadata2934"><rdf:RDF><cc:Work
       rdf:about=""><dc:format>image/svg+xml</dc:format><dc:type
         rdf:resource="http://purl.org/dc/dcmitype/StillImage" /><dc:title /></cc:Work></rdf:RDF></metadata>
<g
   id="g2913">
	<path
   d="M 0,12 C 0,5.3726 5.3726,0 12,0 h 168 c 6.627,0 12,5.3726 12,12 v 168 c 0,6.627 -5.373,12 -12,12 H 12 C 5.3726,192 0,186.627 0,180 V 12 z"
   inkscape:connector-curvature="0"
   id="path2915" />
	<path
   d="M 96,96"
   inkscape:connector-curvature="0"
   id="path2917" />
</g>
<g
   id="g2919"
   style="fill:#ffffff">
	<circle
   cx="96"
   cy="96"
   r="92"
   id="circle2921" />
	<path
   d="M 96,96"
   inkscape:connector-curvature="0"
   id="path2923" />
</g>
<g
   id="routenum"
   style="font-size:371.69000244px"><path
     d="M 35.816,144.34 V 61.972 h -7.722 v -7.436 c 2.4787,-0.47658 4.5283,-1.1439 6.149,-2.002 1.6207,-0.95324 3.2413,-2.2879 4.862,-4.004 h 8.866 v 95.81 H 35.816"
     inkscape:connector-curvature="0"
     id="path2992"
     style="text-align:center" /><path
     d="m 104.33,116.45 c -4e-5,4.576 -0.52438,8.9137 -1.573,13.013 -1.0487,4.004 -2.5264,7.293 -4.433,9.867 -1.716,2.1927 -3.7657,3.861 -6.149,5.005 -2.3834,1.144 -5.148,1.716 -8.294,1.716 -4.29,0 -7.7697,-0.858 -10.439,-2.574 -2.574,-1.716 -4.719,-4.3377 -6.435,-7.865 -1.144,-2.4787 -2.0973,-5.3863 -2.86,-8.723 -0.76267,-3.432 -1.144,-6.9116 -1.144,-10.439 -5e-6,-4.862 0.61966,-9.295 1.859,-13.299 1.3347,-4.004 3.1937,-7.5313 5.577,-10.582 -2.0973,-2.3833 -3.575,-5.0049 -4.433,-7.865 -0.85801,-2.8599 -1.287,-6.3873 -1.287,-10.582 -7e-6,-8.2939 1.6683,-14.92 5.005,-19.877 3.432,-4.9572 8.008,-7.4359 13.728,-7.436 6.006,9.8e-5 10.677,2.4788 14.014,7.436 3.432,4.8621 5.148,11.488 5.148,19.877 -4e-5,4.0041 -0.42904,7.5314 -1.287,10.582 -0.85804,3.0507 -2.3357,5.6724 -4.433,7.865 2.3833,3.0507 4.1946,6.5304 5.434,10.439 1.3346,3.8134 2.002,8.294 2.002,13.442 M 90.176,74.695 c -3.2e-5,-5.0526 -0.52436,-8.8659 -1.573,-11.44 -0.95336,-2.6692 -2.5264,-4.0039 -4.719,-4.004 -2.3834,8.5e-5 -4.0994,1.3348 -5.148,4.004 -1.0487,2.5741 -1.573,6.3874 -1.573,11.44 -1.9e-5,8.5801 2.2403,12.87 6.721,12.87 4.1946,5.7e-5 6.292,-4.2899 6.292,-12.87 m 1.716,41.756 c -3.4e-5,-5.434 -0.71503,-9.5333 -2.145,-12.298 -1.43,-2.7646 -3.3844,-4.147 -5.863,-4.147 -5.6247,4e-5 -8.437,5.4817 -8.437,16.445 -1.7e-5,5.434 0.71498,9.6764 2.145,12.727 1.43,2.9553 3.5273,4.433 6.292,4.433 2.4786,1e-5 4.433,-1.4777 5.863,-4.433 1.43,-3.0506 2.145,-7.293 2.145,-12.727"
     inkscape:connector-curvature="0"
     id="path2994"
     style="text-align:center" /><path
     d="m 161.6,96.288 c -0.0954,2.6694 -0.19072,5.7677 -0.286,9.295 -5e-5,3.432 -0.19072,7.007 -0.572,10.725 -0.28605,3.6227 -0.85805,7.1977 -1.716,10.725 -0.76271,3.5273 -1.9544,6.6733 -3.575,9.438 -1.6207,2.7647 -3.718,5.005 -6.292,6.721 -2.574,1.6207 -5.8154,2.431 -9.724,2.431 -4.004,0 -7.3407,-0.81034 -10.01,-2.431 -2.6694,-1.716 -4.862,-3.9563 -6.578,-6.721 -1.6207,-2.7647 -2.86,-5.9107 -3.718,-9.438 -0.85801,-3.5273 -1.4777,-7.1023 -1.859,-10.725 -0.286,-3.718 -0.429,-7.293 -0.429,-10.725 v -9.295 c 0,-2.8599 0.0477,-6.0536 0.143,-9.581 0.0953,-3.5273 0.33366,-7.1023 0.715,-10.725 0.47666,-3.7179 1.144,-7.2929 2.002,-10.725 0.95332,-3.5272 2.2403,-6.6256 3.861,-9.295 1.716,-2.7646 3.861,-4.9572 6.435,-6.578 2.574,-1.7159 5.72,-2.5739 9.438,-2.574 3.9086,9.8e-5 7.15,0.8581 9.724,2.574 2.6693,1.6208 4.8143,3.8134 6.435,6.578 1.6206,2.6694 2.86,5.7678 3.718,9.295 0.85795,3.4321 1.43,7.0071 1.716,10.725 0.38128,3.6227 0.57195,7.2454 0.572,10.868 -5e-5,3.5274 -5e-5,6.6734 0,9.438 m -12.87,0 c -4e-5,-1.144 -4e-5,-2.8123 0,-5.005 0.0953,-2.2879 0.0953,-4.7666 0,-7.436 -0.0954,-2.7646 -0.28604,-5.5769 -0.572,-8.437 -0.28604,-2.8599 -0.7627,-5.4816 -1.43,-7.865 -0.66737,-2.3833 -1.6207,-4.3376 -2.86,-5.863 -1.144,-1.5252 -2.6217,-2.3356 -4.433,-2.431 -1.8114,0.09542 -3.3367,0.90575 -4.576,2.431 -1.2394,1.5254 -2.2404,3.4797 -3.003,5.863 -0.76269,2.3834 -1.3347,5.0051 -1.716,7.865 -0.38135,2.8601 -0.61968,5.6724 -0.715,8.437 -0.0953,2.6694 -0.14302,5.1481 -0.143,7.436 -2e-5,2.1927 -2e-5,3.861 0,5.005 -2e-5,1.144 -2e-5,2.86 0,5.148 -2e-5,2.1927 0.0477,4.6714 0.143,7.436 0.0953,2.6694 0.33365,5.4817 0.715,8.437 0.38131,2.86 0.95331,5.4817 1.716,7.865 0.76265,2.288 1.716,4.1947 2.86,5.72 1.2393,1.5253 2.8123,2.288 4.719,2.288 1.8113,1e-5 3.289,-0.71499 4.433,-2.145 1.144,-1.5253 2.0496,-3.4796 2.717,-5.863 0.6673,-2.3833 1.144,-5.005 1.43,-7.865 0.3813,-2.86 0.61963,-5.6246 0.715,-8.294 0.0953,-2.7646 0.0953,-5.291 0,-7.579 -4e-5,-2.288 -4e-5,-4.004 0,-5.148"
     inkscape:connector-curvature="0"
     id="path2996"
     style="text-align:center" /></g>
</svg>